<?xml version="1.0" encoding="utf-8"?>
<!-- Generator: Adobe Illustrator 16.0.0, SVG Export Plug-In . SVG Version: 6.00 Build 0)  -->
<!DOCTYPE svg PUBLIC "-//W3C//DTD SVG 1.1//EN" "http://www.w3.org/Graphics/SVG/1.1/DTD/svg11.dtd">
<svg version="1.1" id="Layer_1" xmlns="http://www.w3.org/2000/svg" xmlns:xlink="http://www.w3.org/1999/xlink" x="0px" y="0px"
	 width="436px" height="469px" viewBox="0 0 436 469" enable-background="new 0 0 436 469" xml:space="preserve">
<g>
	<defs>
		<rect id="SVGID_1_" width="436" height="469"/>
	</defs>
	<clipPath id="SVGID_2_">
		<use xlink:href="#SVGID_1_"  overflow="visible"/>
	</clipPath>
	<g clip-path="url(#SVGID_2_)">
		<path fill="#E3E3E1" d="M416.061,40.8h8.059c-0.49,13.637-2.139,24.019-4.945,31.145c-3.908,9.453-9.707,16.967-17.398,22.545
			c-7.691,5.578-16.18,8.367-25.457,8.367c-9.891,0-21.674-3.406-35.348-10.226v61.591h57.324l-10.529,34.631h-46.795V299.3
			c0,21.854-1.189,37.782-3.57,47.78c-2.381,10.002-7.049,19.574-14.002,28.719s-15.68,16.814-26.172,23.017
			c-15.01,8.988-27.092,15.42-36.242,19.299l-76.692,32.677c-24.175-11.469-38.217-17.199-42.123-17.199
			c-3.42,0-6.473,1.528-9.157,4.587c-2.687,3.058-4.579,8.036-5.678,14.937l-7.784-2.335c0-10.735,1.036-19.212,3.114-25.436
			c3.296-9.958,7.935-17.501,13.919-22.633c5.98-5.139,12.391-7.702,19.23-7.702c9.644,0,22.097,4.184,37.361,12.551
			c10.742,6.043,17.307,9.529,19.688,10.459s4.67,1.395,6.868,1.395c3.783,0,7.264-1.976,10.439-5.927
			c3.174-3.951,5.219-9.994,6.135-18.129s1.375-25.062,1.375-50.784V188.853l-11.369-0.232c-18.825,0-32.792,2.752-41.898,8.251
			c-9.108,5.501-16.963,14.759-23.563,27.774l-7.051-3.835c4.882-20.417,11.292-35.11,19.23-44.083
			c13.43-15.158,32.05-22.737,55.859-22.737c1.951,0,4.881,0.08,8.791,0.232v-49.506l12.648,0.697
			c13.684,0,27.188-3.522,40.508-10.575c13.318-7.049,24.502-15.456,33.545-25.218c5.986-6.661,12.342-16.27,19.063-28.82
			c19.998,16.27,36.4,24.404,49.203,24.404c5.609,0,10.365-1.896,14.268-5.694C410.814,55.715,413.863,49.48,416.061,40.8z
			 M303.428,102.159c-8.182,5.578-17.521,9.842-28.021,12.783v187.259c0,6.508-0.486,18.742-1.459,36.708
			c-0.609,10.531-1.582,18.51-2.92,23.929c-2.064,8.055-5.107,15.685-9.119,22.886s-10.822,16.535-20.43,27.996
			c15.957-7.438,28.688-16.614,38.191-27.531c9.5-10.916,15.836-22.689,19.004-35.313c3.168-12.623,4.754-31.562,4.754-56.809
			V102.159z"/>
	</g>
	<path clip-path="url(#SVGID_2_)" fill="none" stroke="#7C2121" stroke-width="2" stroke-miterlimit="10" d="M303.427,294.066
		c0,25.247-1.585,44.186-4.753,56.809c-3.168,12.624-9.503,24.397-19.004,35.313c-9.503,10.917-22.234,20.094-38.191,27.531
		c9.606-11.46,16.418-20.794,20.43-27.996c4.012-7.201,7.054-14.831,9.12-22.886c1.336-5.419,2.309-13.397,2.919-23.929
		c0.973-17.966,1.459-30.2,1.459-36.708V114.942c10.5-2.941,19.84-7.205,28.021-12.783V294.066z M406.915,59.51
		c-3.903,3.798-8.659,5.694-14.269,5.694c-12.803,0-29.205-8.134-49.202-24.404c-6.723,12.551-13.078,22.16-19.064,28.82
		c-9.043,9.762-20.226,18.169-33.544,25.218c-13.321,7.052-26.825,10.575-40.509,10.575l-12.648-0.697v49.505
		c-3.909-0.152-6.839-0.232-8.791-0.232c-23.808,0-42.429,7.579-55.859,22.737c-7.938,8.974-14.348,23.667-19.23,44.084l7.051,3.835
		c6.599-13.015,14.454-22.272,23.563-27.774c9.106-5.498,23.073-8.251,41.896-8.251l11.369,0.232v155.722
		c0,25.723-0.458,42.649-1.374,50.784c-0.915,8.135-2.961,14.178-6.135,18.129c-3.176,3.951-6.656,5.927-10.438,5.927
		c-2.198,0-4.487-0.465-6.869-1.395c-2.381-0.93-8.946-4.416-19.688-10.459c-15.264-8.367-27.718-12.55-37.361-12.55
		c-6.839,0-13.25,2.563-19.23,7.701c-5.984,5.132-10.623,12.675-13.919,22.633c-2.078,6.224-3.114,14.7-3.114,25.436l7.784,2.335
		c1.099-6.9,2.991-11.879,5.678-14.937c2.684-3.059,5.737-4.586,9.157-4.586c3.906,0,17.948,5.729,42.122,17.198l76.692-32.677
		c9.15-3.879,21.232-10.311,36.241-19.299c10.494-6.202,19.22-13.872,26.173-23.017s11.62-18.717,14.002-28.719
		c2.381-9.998,3.571-25.926,3.571-47.779V188.853h46.793l10.531-34.631h-57.324V92.63c13.672,6.82,25.457,10.226,35.347,10.226
		c9.277,0,17.765-2.789,25.457-8.367c7.691-5.578,13.489-13.092,17.398-22.544c2.808-7.126,4.455-17.508,4.945-31.145h-8.059
		C413.862,49.48,410.815,55.715,406.915,59.51z"/>
	<g clip-path="url(#SVGID_2_)">
		<path fill="#E3E3E1" d="M315.697,16.638h8.059c-0.49,13.637-2.139,24.019-4.945,31.145c-3.908,9.453-9.707,16.967-17.398,22.545
			c-7.691,5.578-16.18,8.367-25.457,8.367c-9.891,0-21.674-3.406-35.348-10.226v61.591h57.324l-10.529,34.631h-46.795v110.447
			c0,21.854-1.189,37.782-3.57,47.78c-2.381,10.002-7.049,19.574-14.002,28.719c-6.954,9.145-15.679,16.814-26.172,23.017
			c-15.009,8.988-27.091,15.42-36.242,19.299l-76.691,32.677C59.754,415.16,45.712,409.43,41.807,409.43
			c-3.42,0-6.473,1.528-9.157,4.587c-2.687,3.058-4.579,8.036-5.678,14.937l-7.784-2.335c0-10.735,1.036-19.212,3.114-25.436
			c3.296-9.958,7.935-17.501,13.919-22.633c5.98-5.139,12.391-7.702,19.23-7.702c9.644,0,22.097,4.184,37.361,12.551
			c10.742,6.043,17.307,9.529,19.688,10.459s4.67,1.395,6.868,1.395c3.783,0,7.263-1.976,10.439-5.927
			c3.174-3.951,5.22-9.994,6.135-18.129c0.916-8.135,1.374-25.062,1.374-50.784V164.69l-11.369-0.232
			c-18.824,0-32.791,2.752-41.897,8.251c-9.108,5.501-16.963,14.759-23.563,27.774l-7.051-3.835
			c4.882-20.417,11.292-35.11,19.23-44.083c13.43-15.158,32.05-22.737,55.859-22.737c1.952,0,4.882,0.08,8.791,0.232V80.554
			l12.648,0.697c13.684,0,27.188-3.522,40.509-10.575c13.318-7.049,24.501-15.456,33.544-25.218
			c5.986-6.661,12.342-16.27,19.063-28.82c19.998,16.27,36.4,24.404,49.203,24.404c5.609,0,10.365-1.896,14.268-5.694
			C310.451,31.553,313.5,25.318,315.697,16.638z M203.064,77.997c-8.181,5.578-17.521,9.842-28.021,12.783v187.259
			c0,6.508-0.486,18.742-1.459,36.708c-0.609,10.531-1.583,18.51-2.918,23.929c-2.066,8.055-5.108,15.685-9.12,22.886
			c-4.012,7.201-10.823,16.535-20.429,27.996c15.957-7.438,28.688-16.614,38.191-27.531c9.5-10.916,15.836-22.689,19.004-35.313
			c3.167-12.623,4.753-31.562,4.753-56.809V77.997z"/>
	</g>
	<path clip-path="url(#SVGID_2_)" fill="none" stroke="#7C2121" stroke-width="2" stroke-miterlimit="10" d="M203.064,269.904
		c0,25.247-1.586,44.186-4.753,56.809c-3.168,12.624-9.504,24.397-19.005,35.313c-9.503,10.917-22.234,20.094-38.191,27.53
		c9.607-11.46,16.417-20.794,20.43-27.995c4.011-7.201,7.053-14.831,9.12-22.886c1.336-5.419,2.309-13.397,2.918-23.929
		c0.973-17.966,1.46-30.2,1.46-36.708V90.78c10.499-2.941,19.84-7.205,28.021-12.783V269.904z M306.552,35.348
		c-3.903,3.798-8.659,5.694-14.269,5.694c-12.803,0-29.206-8.134-49.203-24.404c-6.721,12.551-13.077,22.16-19.063,28.82
		c-9.042,9.762-20.225,18.169-33.544,25.218c-13.32,7.052-26.824,10.575-40.508,10.575l-12.649-0.697v49.505
		c-3.909-0.152-6.839-0.232-8.79-0.232c-23.809,0-42.43,7.579-55.859,22.737c-7.938,8.974-14.348,23.667-19.23,44.084l7.051,3.835
		c6.599-13.015,14.454-22.272,23.562-27.774c9.106-5.498,23.073-8.251,41.897-8.251l11.369,0.232v155.722
		c0,25.723-0.457,42.649-1.373,50.784s-2.962,14.178-6.136,18.129c-3.176,3.951-6.656,5.927-10.439,5.927
		c-2.197,0-4.487-0.465-6.868-1.395c-2.381-0.93-8.945-4.416-19.687-10.459c-15.264-8.367-27.718-12.551-37.362-12.551
		c-6.839,0-13.249,2.563-19.23,7.702c-5.983,5.131-10.622,12.675-13.919,22.632c-2.077,6.225-3.113,14.701-3.113,25.437l7.783,2.335
		c1.1-6.9,2.991-11.879,5.678-14.938c2.684-3.058,5.737-4.586,9.157-4.586c3.906,0,17.948,5.73,42.123,17.199l76.691-32.677
		c9.152-3.879,21.233-10.312,36.243-19.299c10.493-6.202,19.218-13.872,26.172-23.017c6.953-9.145,11.621-18.717,14.002-28.719
		c2.381-9.998,3.571-25.926,3.571-47.78V164.69h46.793l10.531-34.631h-57.324V68.468c13.673,6.82,25.457,10.226,35.347,10.226
		c9.277,0,17.765-2.789,25.457-8.367s13.489-13.092,17.398-22.544c2.808-7.126,4.455-17.508,4.945-31.145h-8.059
		C313.499,25.318,310.451,31.553,306.552,35.348z"/>
</g>
</svg>
